<svg xmlns="http://www.w3.org/2000/svg" version="1.1" xmlns:xlink="http://www.w3.org/1999/xlink" xmlns:svgjs="http://svgjs.com/svgjs" x="0" y="0" viewBox="0 0 120 120" style="enable-background:new 0 0 512 512" xml:space="preserve" class=""><g><path d="m95 103h-83c-1.1046 0-2-.895-2-2v-27.5-29.5h87v57c0 1.105-.8954 2-2 2z" fill="#68b7ff" data-original="#ffba33" class=""/><path d="m97 44h-44v-34h25.1058c.7461 0 1.4302.4153 1.7744 1.0773z" fill="#41b6ff" data-original="#ffdd9a" class=""/><path d="m10 44h43v-34h-24.0154c-.7445 0-1.4275.4136-1.7724 1.0735z" fill="#33b0ff" data-original="#ffcc68" class=""/><path d="m110 82c0 15.464-12.536 28-28 28s-28-12.536-28-28 12.536-28 28-28 28 12.536 28 28z" fill="#c6e9ff" data-original="#027ef1" class=""/><path d="m86 73c0-2.2091-1.7909-4-4-4s-4 1.7909-4 4v5h-5c-2.2091 0-4 1.7909-4 4s1.7909 4 4 4h5v5c0 2.2091 1.7909 4 4 4s4-1.7909 4-4v-5h5c2.2091 0 4-1.7909 4-4s-1.7909-4-4-4h-5z" fill="#41b6ff" data-original="#ffffff" class=""/></g></svg>