<svg xmlns="http://www.w3.org/2000/svg" version="1.1" xmlns:xlink="http://www.w3.org/1999/xlink" xmlns:svgjs="http://svgjs.com/svgjs" x="0" y="0" viewBox="0 0 512 512" style="enable-background:new 0 0 512 512" xml:space="preserve" class=""><g><linearGradient id="SVGID_1_" gradientUnits="userSpaceOnUse" x1="256" x2="256" y1="512" y2="-85.333"><stop stop-opacity="1" stop-color="#e2e1ff" offset="0.009652509652509652"/><stop stop-opacity="1" stop-color="#cce4ff" offset="1"/></linearGradient><linearGradient id="SVGID_00000062193571811109870370000016970966260589618871_" gradientUnits="userSpaceOnUse" x1="255.216" x2="255.216" y1="394.614" y2="117.387"><stop stop-opacity="1" stop-color="#748cff" offset="0"/><stop stop-opacity="1" stop-color="#4bc1ff" offset="1"/></linearGradient><g><g><path d="m511.188 256c0 141.385-114.615 256-256 256-339.214-12.55-339.122-499.501.003-512 141.382 0 255.997 114.615 255.997 256z" fill="url(#SVGID_1_)" data-original="url(#SVGID_1_)"/></g><path d="m182.047 332.68c0 4.879 3.969 8.848 8.848 8.848h182.852c11.727.435 11.718 17.264 0 17.695h-15.05c13.099 12.676 4.019 35.44-14.443 35.391-18.461.05-27.542-22.718-14.442-35.391h-100.881c13.1 12.676 4.019 35.44-14.443 35.391-18.461.05-27.542-22.718-14.442-35.391h-9.151c-35.173-1.339-35.147-51.76 0-53.086h.916l-35.636-171.055h-43.139c-11.727-.435-11.718-17.264 0-17.695h50.333c4.191 0 7.807 2.941 8.662 7.043l10.821 51.941h31.885c9.403 85.942 131.695 85.879 141.067 0h41.521c5.528 0 9.707 5.007 8.718 10.446l-23.591 129.75c-.765 4.207-4.429 7.265-8.705 7.265h-182.852c-4.879 0-8.848 3.969-8.848 8.848zm50.137-162.207c0-29.319 23.767-53.086 53.086-53.086 70.342 2.603 70.323 103.58-.001 106.172-29.318 0-53.085-23.767-53.085-53.086zm28.061 9.205 12.513 12.512c3.455 3.455 9.057 3.455 12.512 0l25.025-25.025c3.455-3.455 3.455-9.057 0-12.512-3.455-3.455-9.057-3.455-12.512 0l-18.769 18.769-6.257-6.256c-8.6-7.984-20.493 3.922-12.512 12.512z" fill="url(#SVGID_00000062193571811109870370000016970966260589618871_)" data-original="url(#SVGID_00000062193571811109870370000016970966260589618871_)"/></g></g></svg>