<svg xmlns="http://www.w3.org/2000/svg" version="1.1" xmlns:xlink="http://www.w3.org/1999/xlink" xmlns:svgjs="http://svgjs.com/svgjs" x="0" y="0" viewBox="0 0 512 512" style="enable-background:new 0 0 512 512" xml:space="preserve" class=""><g><path style="" d="M512,256c0,141.385-114.615,256-256,256c-33.896,0-66.247-6.583-95.859-18.547&#10;&#9;c-8.035-3.25-15.882-6.896-23.489-10.919c-0.167-0.094-0.345-0.178-0.512-0.272c-5.329-2.832-10.543-5.841-15.642-9.028&#10;&#9;c-1.923-1.202-3.824-2.424-5.716-3.678c-5.026-3.323-9.927-6.834-14.691-10.501c-12.037-9.258-23.239-19.56-33.437-30.783&#10;&#9;c-25.673-28.181-45.129-62.119-56.205-99.652C3.647,305.601,0,281.224,0,256C0,114.615,114.615,0,256,0S512,114.615,512,256z" fill="#caefff" data-original="#ffd13f" class=""/><path style="" d="M509.262,293.501c-10.742,73.216-52.475,136.349-111.449,175.668&#10;&#9;c-30.375,20.25-65.348,34.179-103.006,39.905C282.154,511.007,269.197,512,256,512c-24.012,0-47.25-3.302-69.287-9.488V293.501&#10;&#9;H509.262z" fill="#3b465c" data-original="#3b465c" class=""/><g><path style="" d="M397.814,319.592V469.17c-6.499,4.326-13.208,8.37-20.104,12.11&#10;&#9;&#9;c-21.013,11.368-43.813,19.895-67.856,25.036c-4.963,1.066-9.979,1.985-15.047,2.759V319.592H397.814z" fill="#ffffff" data-original="#ffffff" class=""/><path style="" d="M420.517,372.834L361.741,50.091c-3.127-17.173-27.747-17.173-30.875,0l-58.777,322.743&#10;&#9;&#9;l74.214-79.633L420.517,372.834z" fill="#ffffff" data-original="#ffffff" class=""/></g><g><circle style="" cx="245.697" cy="171.353" r="33.792" fill="#e8a87c" data-original="#e8a87c" class=""/><circle style="" cx="446.349" cy="171.353" r="33.792" fill="#e8a87c" data-original="#e8a87c" class=""/></g><path style="" d="M346.303,293.902L346.303,293.902c-55.565,0-100.608-45.043-100.608-100.608V64.144h201.217v129.149&#10;&#9;C446.911,248.857,401.868,293.902,346.303,293.902z" fill="#fec495" data-original="#fec495" class=""/><path style="" d="M360.697,292.872c-4.702,0.679-9.498,1.024-14.388,1.024c-55.568,0-100.613-45.035-100.613-100.603&#10;&#9;V64.144h28.787v129.149C274.482,243.971,311.952,285.892,360.697,292.872z" fill="#e8a87c" data-original="#e8a87c" class=""/><path style="" d="M266.951,85.975l-31.139,15.672v71.311l0,0c17.198,0,31.139-13.942,31.139-31.139V85.975z" fill="#253140" data-original="#253140" class=""/><g><path style="" d="M425.656,31.121h31.139v141.838l0,0c-17.198,0-31.139-13.942-31.139-31.139V31.121z" fill="#3b465c" data-original="#3b465c" class=""/><path style="" d="M411.023,101.649H235.81l0,0c0-55.63,45.097-100.727,100.727-100.727h175.212l0,0&#10;&#9;&#9;C511.75,56.551,466.653,101.649,411.023,101.649z" fill="#3b465c" data-original="#3b465c" class=""/></g><path style="" d="M383.777,0.921h-47.239c-55.63,0-100.727,45.098-100.727,100.727l0,0h47.24l0,0&#10;&#9;C283.05,46.018,328.147,0.921,383.777,0.921z" fill="#253140" data-original="#253140" class=""/><g><path style="" d="M321.805,161.205c0-10.387-8.42-18.807-18.807-18.807c-10.387,0-18.807,8.42-18.807,18.807" fill="#232323" data-original="#232323" class=""/><path style="" d="M408.004,161.205c0-10.387-8.42-18.807-18.807-18.807s-18.807,8.42-18.807,18.807" fill="#232323" data-original="#232323" class=""/></g><path style="" d="M362.265,179.022h-31.923c-5.467,0-9.898,4.431-9.898,9.898l0,0c0,5.467,4.431,9.898,9.898,9.898&#10;&#9;h31.923c5.467,0,9.898-4.431,9.898-9.898l0,0C372.163,183.454,367.732,179.022,362.265,179.022z" fill="#e8a87c" data-original="#e8a87c" class=""/><path style="" d="M299.285,209.265c0,25.968,21.051,47.018,47.018,47.018c25.968,0,47.018-21.051,47.018-47.018" fill="#ffffff" data-original="#ffffff" class=""/><g><rect x="318.885" y="305.257" transform="matrix(0.7071 -0.7071 0.7071 0.7071 -133.8116 342.3216)" style="" width="54.857" height="54.857" fill="#3fc7ff" data-original="#fb4a75" class=""/><path style="" d="M377.71,481.28c-21.013,11.368-43.813,19.895-67.856,25.036l35.088-186.723l1.369-7.283l1.358,7.283&#10;&#9;&#9;L377.71,481.28z" fill="#3fc7ff" data-original="#fb4a75" class=""/></g><path style="" d="M160.141,395.536v97.917c-8.035-3.25-15.882-6.896-23.489-10.919&#10;&#9;c-0.167-0.094-0.345-0.178-0.512-0.272c-5.329-2.832-10.543-5.841-15.642-9.028v-77.699L160.141,395.536L160.141,395.536z" fill="#e89435" data-original="#e89435"/><path style="" d="M160.141,443.789v49.664c-8.035-3.25-15.882-6.896-23.489-10.919v-38.745L160.141,443.789&#10;&#9;L160.141,443.789z" fill="#fdbc69" data-original="#fdbc69" class=""/><path style="" d="M270.2,276.01v127.039c0,13.928-11.295,25.224-25.224,25.224H66.654&#10;&#9;c-25.673-28.181-45.129-62.119-56.205-99.652V276.01c0-13.928,11.295-25.224,25.224-25.224h209.303&#10;&#9;C258.905,250.786,270.2,262.081,270.2,276.01z" fill="#3fc7ff" data-original="#b5423c" class=""/><g><path style="" d="M69.366,331.562c-4.962-2.006-7.137-3.142-7.137-5.594c0-2.542,2.059-3.832,6.121-3.832&#10;&#9;&#9;c3.105,0,4.774,0.858,6.115,1.547c0.968,0.497,1.969,1.012,3.181,1.012c3.434,0,5.261-3.564,5.261-6.137&#10;&#9;&#9;c0-6.947-13.066-7.147-14.556-7.147c-8.632,0-17.856,4.001-17.856,15.229c0,10.221,7.538,13.401,13.594,15.956&#10;&#9;&#9;c5.298,2.235,8.295,3.684,8.295,7.483c0,4.001-3.366,4.841-6.189,4.841c-3.878,0-5.715-1.665-7.336-3.133&#10;&#9;&#9;c-1.188-1.075-2.415-2.188-4.181-2.188c-3.039,0-5.396,3.299-5.396,6.137c0,4.845,7.056,10.245,17.182,10.245&#10;&#9;&#9;c10.889,0,17.654-6.377,17.654-16.643C84.118,337.527,75.592,334.079,69.366,331.562z" fill="#ffffff" data-original="#ffffff" class=""/><path style="" d="M121.917,315.204c-0.81-2.426-3.463-3.996-6.759-3.996c-3.256,0-5.883,1.568-6.71,4.048&#10;&#9;&#9;l-13.385,43.593c-0.185,0.555-0.185,1.042-0.185,1.332c0,3.147,3.487,5.261,6.743,5.261c3.356,0,4.395-2.164,4.699-3.142&#10;&#9;&#9;l2.283-7.904h13.179l2.296,7.952c0.605,1.937,2.331,3.094,4.618,3.094c3.289,0,6.811-2.114,6.811-5.261&#10;&#9;&#9;c0-0.575-0.152-1.03-0.235-1.277L121.917,315.204z M111.485,344.077l3.672-12.594l3.672,12.594H111.485z" fill="#ffffff" data-original="#ffffff" class=""/><path style="" d="M175.299,354.516h-15.214v-38.315c0-2.744-2.358-4.588-5.868-4.588&#10;&#9;&#9;c-3.454,0-5.867,1.887-5.867,4.588v44.588c0,2.654,2.349,4.655,5.464,4.655h21.485c2.538,0,4.453-2.349,4.453-5.464&#10;&#9;&#9;C179.752,356.814,177.879,354.516,175.299,354.516z" fill="#ffffff" data-original="#ffffff" class=""/><path style="" d="M222.038,354.516h-17.706v-10.895h8.074c3.024,0,4.655-2.607,4.655-5.059&#10;&#9;&#9;c0-2.961-2.002-5.194-4.655-5.194h-8.074v-10.828h17.706c2.697,0,4.655-2.326,4.655-5.531c0-3.126-1.958-5.396-4.655-5.396H198.06&#10;&#9;&#9;c-3.115,0-5.464,2.001-5.464,4.655v44.52c0,2.654,2.349,4.655,5.464,4.655h23.977c2.697,0,4.655-2.27,4.655-5.396&#10;&#9;&#9;C226.693,356.842,224.736,354.516,222.038,354.516z" fill="#ffffff" data-original="#ffffff" class=""/></g><g></g><g></g><g></g><g></g><g></g><g></g><g></g><g></g><g></g><g></g><g></g><g></g><g></g><g></g><g></g></g></svg>