<svg xmlns="http://www.w3.org/2000/svg" version="1.1" xmlns:xlink="http://www.w3.org/1999/xlink" xmlns:svgjs="http://svgjs.com/svgjs" x="0" y="0" viewBox="0 0 32 32" style="enable-background:new 0 0 512 512" xml:space="preserve"><g><linearGradient id="lg1"><stop offset=".2712" stop-color="#15a4fc"/><stop offset=".3857" stop-color="#22b0fb"/><stop offset=".6997" stop-color="#40ccfa"/><stop offset=".8772" stop-color="#4bd6f9"/></linearGradient><linearGradient id="SVGID_1_" gradientUnits="userSpaceOnUse" x1="17.36" x2="18.509" xlink:href="#lg1" y1="33.225" y2=".608"/><linearGradient id="SVGID_2_" gradientUnits="userSpaceOnUse" x1="10.345" x2=".196" xlink:href="#lg1" y1="4.175" y2="7.047"/><path d="m30 6v23.5c0 .4-.6.6-1 .3l-1.5-1.4c-.3-.2-.8-.2-1.1 0l-1.5 1.2c-.5.4-1.3.4-1.8 0l-1.5-1.2c-.3-.3-.8-.3-1.1 0l-1.5 1.2c-.5.4-1.3.4-1.9 0l-1.5-1.2c-.3-.3-.8-.3-1.1 0l-1.5 1.2c-.5.4-1.3.4-1.9 0l-1.5-1.2c-.3-.2-.8-.2-1.1 0l-1.5 1.4c-.4.4-1 .1-1-.3v-27.5h19.7c2.3 0 4.3 1.8 4.3 4z" fill="url(#SVGID_1_)" data-original="url(#SVGID_1_)"/><path d="m6 2v6.9h-3c-.5 0-1-.5-1-1v-1.9c0-2.1 1.8-3.9 4-4z" fill="url(#SVGID_2_)" data-original="url(#SVGID_2_)"/><g fill="#fff"><path d="m25.7 7.8h-15.5c-.5 0-.9-.4-.9-.9.1-.5.5-.9.9-.9h15.5c.5 0 .9.4.9.9 0 .5-.4.9-.9.9z" fill="#ffffff" data-original="#ffffff"/><path d="m25.7 13.1h-15.5c-.5 0-.9-.4-.9-.9 0-.5.4-.9.9-.9h15.5c.5 0 .9.4.9.9 0 .5-.4.9-.9.9z" fill="#ffffff" data-original="#ffffff"/><path d="m25.7 18.4h-15.5c-.5 0-.9-.4-.9-.9 0-.5.4-.9.9-.9h15.5c.5 0 .9.4.9.9 0 .5-.4.9-.9.9z" fill="#ffffff" data-original="#ffffff"/><path d="m25.7 23.7h-15.5c-.5 0-.9-.4-.9-.9 0-.5.4-.9.9-.9h15.5c.5 0 .9.4.9.9 0 .5-.4.9-.9.9z" fill="#ffffff" data-original="#ffffff"/></g></g></svg>