<svg xmlns="http://www.w3.org/2000/svg" version="1.1" xmlns:xlink="http://www.w3.org/1999/xlink" xmlns:svgjs="http://svgjs.com/svgjs" x="0" y="0" viewBox="0 0 32 32" style="enable-background:new 0 0 512 512" xml:space="preserve"><g><g id="hearth"><g><g><path d="m28.0478516 3.7299805c-1.4404297-1.1298828-3.3671875-1.7519531-5.4267578-1.7519531-2.5917969 0-5.0537109.9487305-6.6210938 2.4897461-1.5673828-1.5410156-4.0288086-2.4897461-6.6210938-2.4897461-2.059082 0-3.9863281.6220703-5.4267578 1.7519531-4.0756836 3.1987305-3.2895508 8.859375-1.3759766 12.7392578 3.484375 6.9726563 10.3569336 12.1220703 11.0644531 12.6401367.5947267.5322266 1.5732423.9130859 2.3593751.9130859s1.7646484-.3813477 2.359375-.9135742c.7089844-.519043 7.5810547-5.6679688 11.0664063-12.644043 1.9121093-3.8754882 2.6972656-9.5361328-1.3779297-12.7348632z" fill="#ef5350" data-original="#ef5350"/><path d="m25.8388672 14.6953125s.265625-2.8618164-.6923828-5.6743164c-.8330078-2.4448242-2.5253906-3.0429688-2.5253906-3.0429688 1.1679688 0 2.21875.3193359 2.9580078.8989258 2.883789 2.2636719.5371093 7.256836.2597656 7.8183594z" fill="#e0e0e0" data-original="#e0e0e0"/></g><path d="m28.0498047 3.7299805c-1.4394531-1.1298828-3.3701172-1.75-5.4296875-1.75-2.5898438 0-5.0498047.9501953-6.6201172 2.4902344v25.5498047c.7900391 0 1.7597656-.3798828 2.3603516-.9101563.7099609-.5200195 7.5800781-5.6699219 11.0693359-12.6499023 1.9101563-3.8701172 2.6904297-9.5297852-1.3798828-12.7299805z" opacity=".1" fill="#000000" data-original="#000000"/></g></g></g></svg>