<svg xmlns="http://www.w3.org/2000/svg" version="1.1" xmlns:xlink="http://www.w3.org/1999/xlink" xmlns:svgjs="http://svgjs.com/svgjs" x="0" y="0" viewBox="0 0 497 497" style="enable-background:new 0 0 512 512" xml:space="preserve" class=""><g><g><path d="m374.037 170.356h26.318c9.111 0 16.496 7.386 16.496 16.496v44.275c0 9.111-7.386 16.496-16.496 16.496h-15.92z" fill="#6a808c" data-original="#6a808c"/><g><path d="m300.453 0h-136.322c-14.231 0-26.56 9.865-29.681 23.749l-13.967 62.122 120.03 14.669 103.589-14.669-13.967-62.122c-3.122-13.884-15.451-23.749-29.682-23.749z" fill="#8d9ca8" data-original="#8d9ca8" class=""/><path d="m330.134 23.749c-3.121-13.884-15.45-23.749-29.681-23.749h-23.998c14.231 0 26.56 9.865 29.681 23.749l13.967 62.122h23.998z" fill="#7a8c98" data-original="#7a8c98"/><path d="m300.453 497h-136.322c-14.231 0-26.56-9.865-29.681-23.749l-13.967-62.122 112.575-19.28 111.045 19.28-13.967 62.122c-3.123 13.884-15.452 23.749-29.683 23.749z" fill="#8d9ca8" data-original="#8d9ca8" class=""/><path d="m320.103 411.129-13.967 62.122c-3.122 13.884-15.451 23.749-29.681 23.749h23.998c14.23 0 26.56-9.865 29.681-23.749l13.967-62.122z" fill="#7a8c98" data-original="#7a8c98"/></g><path d="m345.79 411.129h-226.996c-21.343 0-38.645-17.302-38.645-38.645v-247.968c0-21.343 17.302-38.645 38.645-38.645h226.996c21.343 0 38.645 17.302 38.645 38.645v247.968c0 21.343-17.302 38.645-38.645 38.645z" fill="#6c7fd8" data-original="#6c7fd8" class=""/><path d="m345.79 85.871h-21.998c21.343 0 37.645 17.302 37.645 38.645v247.968c0 21.343-16.302 38.645-37.645 38.645h21.998c21.343 0 38.645-17.302 38.645-38.645v-247.968c0-21.343-17.302-38.645-38.645-38.645z" fill="#4f66d0" data-original="#4f66d0"/><path d="m354.432 130.38v236.24c0 8.01-6.49 14.51-14.51 14.51h-215.26c-8.02 0-14.51-6.5-14.51-14.51v-236.24c0-8.01 6.49-14.51 14.51-14.51h215.26c8.02 0 14.51 6.5 14.51 14.51z" fill="#c8effe" data-original="#c8effe" class=""/><path d="m339.922 115.87h-23.998c8.02 0 14.51 6.5 14.51 14.51v236.24c0 8.01-6.49 14.51-14.51 14.51h23.998c8.02 0 14.51-6.5 14.51-14.51v-236.24c0-8.01-6.49-14.51-14.51-14.51z" fill="#a7edf9" data-original="#a7edf9"/><path d="m354.432 220.82v145.8c0 8.01-6.49 14.51-14.51 14.51h-215.26c-8.02 0-14.51-6.5-14.51-14.51v-145.8z" fill="#eaf6ff" data-original="#eaf6ff" class=""/><path d="m330.434 220.82v145.8c0 8.01-6.49 14.51-14.51 14.51h23.998c8.02 0 14.51-6.5 14.51-14.51v-145.8z" fill="#c8effe" data-original="#c8effe" class=""/><path d="m296.835 312.174h-42.506c-7.631 0-13.817-6.186-13.817-13.817 0-7.631 6.186-13.817 13.817-13.817h42.506c7.631 0 13.817 6.186 13.817 13.817 0 7.631-6.186 13.817-13.817 13.817z" fill="#c9f772" data-original="#c9f772"/><path d="m296.835 284.54h-26.903c7.631 0 13.817 6.186 13.817 13.817s-6.186 13.817-13.817 13.817h26.903c7.631 0 13.817-6.186 13.817-13.817s-6.186-13.817-13.817-13.817z" fill="#bbec6c" data-original="#bbec6c" class=""/><g><path d="m248.674 42.794h-32.763c-4.142 0-7.5-3.358-7.5-7.5s3.358-7.5 7.5-7.5h32.763c4.143 0 7.5 3.358 7.5 7.5s-3.358 7.5-7.5 7.5z" fill="#eaf6ff" data-original="#eaf6ff" class=""/></g><g><g><path d="m180.434 354.265c-17.095.001-31.655-12.597-34.023-29.568-.572-4.103 2.289-7.892 6.392-8.465 4.104-.568 7.892 2.289 8.465 6.392 1.351 9.682 9.741 16.87 19.566 16.638 10.087-.204 18.397-8.245 18.92-18.307.278-5.371-1.601-10.469-5.291-14.356-3.694-3.89-8.677-6.033-14.032-6.033-7.299 0-10.305 1.107-14.058 2.796-.452.203-.731.341-.798.375-2.521 1.28-5.561 1.041-7.841-.631-2.281-1.672-3.439-4.479-2.977-7.27l6.534-39.438c.6-3.62 3.73-6.274 7.399-6.274h32.984c4.142 0 7.5 3.358 7.5 7.5s-3.358 7.5-7.5 7.5h-26.624l-3.487 21.047c2.553-.396 5.428-.605 8.869-.605 9.372 0 18.451 3.902 24.91 10.705 6.551 6.9 9.887 15.942 9.393 25.462-.928 17.878-15.686 32.165-33.597 32.526-.237.004-.472.006-.704.006z" fill="#8d9ca8" data-original="#8d9ca8" class=""/></g></g><g><path d="m286.934 263.559h-38.421c-4.143 0-7.5-3.358-7.5-7.5s3.357-7.5 7.5-7.5h38.421c4.143 0 7.5 3.358 7.5 7.5s-3.358 7.5-7.5 7.5z" fill="#8d9ca8" data-original="#8d9ca8" class=""/></g><g><path d="m294.432 170.36c0 4.14-3.36 7.5-7.5 7.5h-75.29c-2.51 0-4.85-1.26-6.24-3.34l-5.94-8.89-12.01 27.99c-1.11 2.59-3.57 4.33-6.37 4.53-.18.01-.35.02-.52.02-2.61 0-5.05-1.36-6.42-3.62l-20.51-33.84-7.93 12.26c-1.38 2.14-3.75 3.43-6.3 3.43h-29.25v-15h25.17l12.22-18.89c1.4-2.17 3.83-3.46 6.41-3.43 2.58.04 4.96 1.41 6.3 3.61l19.17 31.62 11.71-27.29c1.09-2.53 3.47-4.26 6.21-4.52 2.74-.25 5.4 1.02 6.92 3.31l11.39 17.05h71.28c4.14 0 7.5 3.35 7.5 7.5z" fill="#99e6fc" data-original="#99e6fc" class=""/></g><circle cx="250.512" cy="346.765" fill="#99e6fc" r="8.167" data-original="#99e6fc" class=""/><circle cx="285.582" cy="346.765" fill="#99e6fc" r="8.167" data-original="#99e6fc" class=""/><path d="m323.324 157.111c-2.431-5.565-8.694-8.37-14.464-6.476l-8.691 2.852c-.803.263-1.669.263-2.471 0l-8.691-2.852c-5.77-1.893-12.034.911-14.464 6.476-2.002 4.584-.986 9.926 2.56 13.454l19.036 18.946c1.546 1.539 4.046 1.539 5.592 0l19.036-18.946c3.543-3.528 4.559-8.87 2.557-13.454z" fill="#ee6161" data-original="#ee6161"/></g></g></svg>