<svg width="547" height="400" viewBox="0 0 547 400" fill="none" xmlns="http://www.w3.org/2000/svg">
<path d="M511.441 303.324C531.085 303.324 547 324.969 547 351.657C547 378.345 531.085 400 511.441 400H35.5902C15.9563 400 0.0412565 378.355 0.0412565 351.657C0.0412565 324.959 15.9563 303.324 35.5902 303.324H511.441ZM11.9876 158.213C42.0982 124.14 99.79 144.749 99.79 189.551C99.79 234.352 42.0982 254.961 11.9876 220.889C4.29372 212.403 0.00743726 201.201 9.66948e-06 189.559C-0.00741792 177.917 4.26452 166.709 11.9476 158.213H11.9876ZM493.607 145.961C523.097 145.961 547 166.891 547 192.72C547 218.548 523.097 239.468 493.607 239.468H189.702C160.221 239.468 136.319 218.538 136.319 192.72C136.319 166.901 160.221 145.961 189.702 145.961H493.607ZM505.993 0C528.616 0 546.98 20.4847 546.98 45.7539C546.98 71.0232 528.636 91.4975 505.993 91.4975H272.836C250.213 91.4975 231.849 71.0128 231.849 45.7539C231.849 20.495 250.213 0 272.836 0H505.993Z" fill="url(#paint0_linear_5_4)"/>
<defs>
<linearGradient id="paint0_linear_5_4" x1="-148.172" y1="614.053" x2="543.839" y2="92.5535" gradientUnits="userSpaceOnUse">
<stop stop-color="#1A5EFF" stop-opacity="0.6"/>
<stop offset="0.94" stop-color="#A7E2FF"/>
</linearGradient>
</defs>
</svg>
